<mxfile host="app.diagrams.net" modified="2021-04-26T09:44:23.033Z" agent="5.0 (Windows NT 10.0; Win64; x64) AppleWebKit/537.36 (KHTML, like Gecko) Chrome/90.0.4430.85 Safari/537.36" etag="Ml8tE5R69Flu524_fS0C" version="14.6.6" type="github">
  <diagram id="aFcd-sZfIuxCYyvOa6EC" name="Page-1">
    <mxGraphModel dx="2031" dy="1089" grid="1" gridSize="10" guides="1" tooltips="1" connect="1" arrows="1" fold="1" page="1" pageScale="1" pageWidth="827" pageHeight="1169" math="0" shadow="0">
      <root>
        <mxCell id="0" />
        <mxCell id="1" parent="0" />
        <mxCell id="uNM0V1RIPhNdZ5J6F5W2-13" style="edgeStyle=orthogonalEdgeStyle;rounded=0;orthogonalLoop=1;jettySize=auto;html=1;entryX=0;entryY=0.527;entryDx=0;entryDy=0;entryPerimeter=0;fontSize=17;" edge="1" parent="1" source="uNM0V1RIPhNdZ5J6F5W2-2" target="uNM0V1RIPhNdZ5J6F5W2-5">
          <mxGeometry relative="1" as="geometry" />
        </mxCell>
        <mxCell id="uNM0V1RIPhNdZ5J6F5W2-2" value="流量探针" style="rounded=0;whiteSpace=wrap;html=1;" vertex="1" parent="1">
          <mxGeometry x="200" y="240" width="70" height="110" as="geometry" />
        </mxCell>
        <mxCell id="uNM0V1RIPhNdZ5J6F5W2-14" style="edgeStyle=orthogonalEdgeStyle;rounded=0;orthogonalLoop=1;jettySize=auto;html=1;exitX=1;exitY=0.5;exitDx=0;exitDy=0;fontSize=17;" edge="1" parent="1" source="uNM0V1RIPhNdZ5J6F5W2-3" target="uNM0V1RIPhNdZ5J6F5W2-5">
          <mxGeometry relative="1" as="geometry" />
        </mxCell>
        <mxCell id="uNM0V1RIPhNdZ5J6F5W2-3" value="采集过滤器" style="rounded=0;whiteSpace=wrap;html=1;" vertex="1" parent="1">
          <mxGeometry x="200" y="390" width="70" height="220" as="geometry" />
        </mxCell>
        <mxCell id="uNM0V1RIPhNdZ5J6F5W2-6" style="edgeStyle=orthogonalEdgeStyle;rounded=0;orthogonalLoop=1;jettySize=auto;html=1;" edge="1" parent="1" source="uNM0V1RIPhNdZ5J6F5W2-4" target="uNM0V1RIPhNdZ5J6F5W2-2">
          <mxGeometry relative="1" as="geometry">
            <Array as="points">
              <mxPoint x="240" y="285" />
              <mxPoint x="240" y="285" />
            </Array>
          </mxGeometry>
        </mxCell>
        <mxCell id="uNM0V1RIPhNdZ5J6F5W2-4" value="全网流量" style="rounded=0;whiteSpace=wrap;html=1;" vertex="1" parent="1">
          <mxGeometry x="10" y="240" width="130" height="90" as="geometry" />
        </mxCell>
        <mxCell id="uNM0V1RIPhNdZ5J6F5W2-17" style="edgeStyle=orthogonalEdgeStyle;rounded=0;orthogonalLoop=1;jettySize=auto;html=1;fontSize=17;entryX=0;entryY=0.5;entryDx=0;entryDy=0;" edge="1" parent="1" source="uNM0V1RIPhNdZ5J6F5W2-5" target="uNM0V1RIPhNdZ5J6F5W2-30">
          <mxGeometry relative="1" as="geometry" />
        </mxCell>
        <mxCell id="uNM0V1RIPhNdZ5J6F5W2-5" value="消息队列" style="rounded=0;whiteSpace=wrap;html=1;" vertex="1" parent="1">
          <mxGeometry x="334.5" y="240" width="66" height="370" as="geometry" />
        </mxCell>
        <mxCell id="uNM0V1RIPhNdZ5J6F5W2-11" style="edgeStyle=orthogonalEdgeStyle;rounded=0;orthogonalLoop=1;jettySize=auto;html=1;exitX=1;exitY=0.5;exitDx=0;exitDy=0;entryX=0;entryY=0.5;entryDx=0;entryDy=0;fontSize=17;" edge="1" parent="1" source="uNM0V1RIPhNdZ5J6F5W2-7" target="uNM0V1RIPhNdZ5J6F5W2-3">
          <mxGeometry relative="1" as="geometry" />
        </mxCell>
        <mxCell id="uNM0V1RIPhNdZ5J6F5W2-7" value="异构数据源" style="rounded=0;whiteSpace=wrap;html=1;verticalAlign=top;fontSize=17;" vertex="1" parent="1">
          <mxGeometry x="10" y="390" width="130" height="220" as="geometry" />
        </mxCell>
        <mxCell id="uNM0V1RIPhNdZ5J6F5W2-8" value="安全设备" style="rounded=0;whiteSpace=wrap;html=1;fontSize=17;" vertex="1" parent="1">
          <mxGeometry x="20" y="430" width="110" height="30" as="geometry" />
        </mxCell>
        <mxCell id="uNM0V1RIPhNdZ5J6F5W2-9" value="主机操作日志" style="rounded=0;whiteSpace=wrap;html=1;fontSize=17;" vertex="1" parent="1">
          <mxGeometry x="20" y="470" width="110" height="30" as="geometry" />
        </mxCell>
        <mxCell id="uNM0V1RIPhNdZ5J6F5W2-10" value="威胁情报" style="rounded=0;whiteSpace=wrap;html=1;fontSize=17;" vertex="1" parent="1">
          <mxGeometry x="20" y="510" width="110" height="30" as="geometry" />
        </mxCell>
        <mxCell id="uNM0V1RIPhNdZ5J6F5W2-12" value="..." style="rounded=0;whiteSpace=wrap;html=1;fontSize=17;" vertex="1" parent="1">
          <mxGeometry x="20" y="555" width="110" height="30" as="geometry" />
        </mxCell>
        <mxCell id="uNM0V1RIPhNdZ5J6F5W2-16" value="实时关联分析引擎" style="rounded=0;whiteSpace=wrap;html=1;fontSize=17;" vertex="1" parent="1">
          <mxGeometry x="600" y="240" width="150" height="370" as="geometry" />
        </mxCell>
        <mxCell id="uNM0V1RIPhNdZ5J6F5W2-19" value="安全运营" style="rounded=0;whiteSpace=wrap;html=1;fontSize=17;align=center;verticalAlign=bottom;" vertex="1" parent="1">
          <mxGeometry x="827" y="240" width="643" height="180" as="geometry" />
        </mxCell>
        <mxCell id="uNM0V1RIPhNdZ5J6F5W2-20" value="资产扫描器" style="rounded=1;whiteSpace=wrap;html=1;fontSize=17;" vertex="1" parent="1">
          <mxGeometry x="831.5" y="940" width="137" height="60" as="geometry" />
        </mxCell>
        <mxCell id="uNM0V1RIPhNdZ5J6F5W2-22" value="SOAR 子系统" style="rounded=1;whiteSpace=wrap;html=1;fontSize=17;" vertex="1" parent="1">
          <mxGeometry x="1293.75" y="260" width="136.25" height="120" as="geometry" />
        </mxCell>
        <mxCell id="uNM0V1RIPhNdZ5J6F5W2-23" value="运营管理子系统" style="rounded=1;whiteSpace=wrap;html=1;fontSize=17;" vertex="1" parent="1">
          <mxGeometry x="906.25" y="330" width="253.75" height="50" as="geometry" />
        </mxCell>
        <mxCell id="uNM0V1RIPhNdZ5J6F5W2-24" value="" style="rounded=1;whiteSpace=wrap;html=1;fontSize=17;" vertex="1" parent="1">
          <mxGeometry x="906.25" y="260" width="172" height="50" as="geometry" />
        </mxCell>
        <mxCell id="uNM0V1RIPhNdZ5J6F5W2-26" value="&lt;b&gt;安全能力池服务-第三方&lt;/b&gt;" style="rounded=0;whiteSpace=wrap;html=1;fontSize=17;dashed=1;verticalAlign=top;" vertex="1" parent="1">
          <mxGeometry x="827" y="460" width="583" height="150" as="geometry" />
        </mxCell>
        <mxCell id="uNM0V1RIPhNdZ5J6F5W2-31" style="edgeStyle=orthogonalEdgeStyle;rounded=0;orthogonalLoop=1;jettySize=auto;html=1;fontSize=17;" edge="1" parent="1" source="uNM0V1RIPhNdZ5J6F5W2-30" target="uNM0V1RIPhNdZ5J6F5W2-16">
          <mxGeometry relative="1" as="geometry" />
        </mxCell>
        <mxCell id="uNM0V1RIPhNdZ5J6F5W2-30" value="ETL" style="rounded=0;whiteSpace=wrap;html=1;fontSize=17;align=center;" vertex="1" parent="1">
          <mxGeometry x="441.25" y="240" width="88.75" height="370" as="geometry" />
        </mxCell>
        <mxCell id="uNM0V1RIPhNdZ5J6F5W2-32" value="数据源" style="text;html=1;strokeColor=none;fillColor=none;align=center;verticalAlign=middle;whiteSpace=wrap;rounded=0;fontSize=22;fontStyle=1" vertex="1" parent="1">
          <mxGeometry x="820" y="1400" width="70" height="20" as="geometry" />
        </mxCell>
        <mxCell id="uNM0V1RIPhNdZ5J6F5W2-35" value="数据预处理" style="text;html=1;strokeColor=none;fillColor=none;align=center;verticalAlign=middle;whiteSpace=wrap;rounded=0;fontSize=22;fontStyle=1" vertex="1" parent="1">
          <mxGeometry x="960" y="1400" width="130" height="20" as="geometry" />
        </mxCell>
        <mxCell id="uNM0V1RIPhNdZ5J6F5W2-36" value="威胁分析" style="text;html=1;strokeColor=none;fillColor=none;align=center;verticalAlign=middle;whiteSpace=wrap;rounded=0;fontSize=22;fontStyle=1" vertex="1" parent="1">
          <mxGeometry x="1160" y="1400" width="130" height="20" as="geometry" />
        </mxCell>
        <mxCell id="uNM0V1RIPhNdZ5J6F5W2-37" value="响应处置" style="text;html=1;strokeColor=none;fillColor=none;align=center;verticalAlign=middle;whiteSpace=wrap;rounded=0;fontSize=22;fontStyle=1" vertex="1" parent="1">
          <mxGeometry x="1350" y="1400" width="130" height="20" as="geometry" />
        </mxCell>
        <mxCell id="uNM0V1RIPhNdZ5J6F5W2-38" value="安全编排和自动化运营" style="text;html=1;strokeColor=none;fillColor=none;align=center;verticalAlign=middle;whiteSpace=wrap;rounded=0;fontSize=22;fontStyle=1" vertex="1" parent="1">
          <mxGeometry x="1000" y="1330" width="310" height="20" as="geometry" />
        </mxCell>
        <mxCell id="uNM0V1RIPhNdZ5J6F5W2-40" value="&lt;b&gt;安全原子能力资源池&lt;/b&gt;" style="rounded=0;whiteSpace=wrap;html=1;fontSize=17;dashed=1;verticalAlign=top;" vertex="1" parent="1">
          <mxGeometry x="20" y="790" width="610" height="165" as="geometry" />
        </mxCell>
        <mxCell id="uNM0V1RIPhNdZ5J6F5W2-41" value="资产发现" style="shape=cylinder3;whiteSpace=wrap;html=1;boundedLbl=1;backgroundOutline=1;size=15;fontSize=22;align=center;" vertex="1" parent="1">
          <mxGeometry x="850" y="520" width="100" height="80" as="geometry" />
        </mxCell>
      </root>
    </mxGraphModel>
  </diagram>
</mxfile>
